<?xml version="1.0" encoding="utf-8"?>
<!-- Generator: Adobe Illustrator 25.3.1, SVG Export Plug-In . SVG Version: 6.00 Build 0)  -->
<svg version="1.1" id="Layer_1" xmlns="http://www.w3.org/2000/svg" xmlns:xlink="http://www.w3.org/1999/xlink" x="0px" y="0px"
	 viewBox="0 0 101.6 93.5" style="enable-background:new 0 0 101.6 93.5;" xml:space="preserve">
<style type="text/css">
	.st0{fill:#FFFFFF;}
	.st1{fill:#F15A24;}
	.st2{fill:none;stroke:#F15A24;stroke-miterlimit:10;}
</style>
<g>
	<polygon class="st0" points="26.9,91.5 2.2,49 26.9,6.5 76.3,6.5 101,49 76.3,91.5 	"/>
	<path class="st1" d="M76,7l24.4,42L76,91H27.2L2.8,49L27.2,7H76 M76.6,6h-50l-25,43l25,43h50l25-43L76.6,6L76.6,6z"/>
</g>
<g>
	<rect x="28.1" y="49.5" class="st1" width="16" height="30"/>
	<path class="st1" d="M43.6,50v29h-15V50H43.6 M44.6,49h-17v31h17V49L44.6,49z"/>
</g>
<g>
	<rect x="57.1" y="49.5" class="st1" width="16" height="30"/>
	<path class="st1" d="M72.6,50v29h-15V50H72.6 M73.6,49h-17v31h17V49L73.6,49z"/>
</g>
<g>
	<polygon class="st1" points="17.7,48.5 50.6,12.2 83.5,48.5 	"/>
	<path class="st1" d="M50.6,13l31.7,35H18.9L50.6,13 M50.6,11.5L16.6,49h68L50.6,11.5L50.6,11.5z"/>
</g>
<g>
	<line class="st2" x1="13.1" y1="48.5" x2="48.1" y2="10.5"/>
</g>
<line class="st2" x1="88.1" y1="48.5" x2="53.1" y2="10.5"/>
<line class="st2" x1="43.5" y1="61.9" x2="57.6" y2="61.5"/>
</svg>
