<?xml version="1.0" encoding="utf-8"?>
<!-- Generator: Adobe Illustrator 25.3.1, SVG Export Plug-In . SVG Version: 6.00 Build 0)  -->
<svg version="1.1" id="Layer_1" xmlns="http://www.w3.org/2000/svg" xmlns:xlink="http://www.w3.org/1999/xlink" x="0px" y="0px"
	 viewBox="0 0 96 86" style="enable-background:new 0 0 96 86;" xml:space="preserve">
<style type="text/css">
	.st0{fill:#FFFFFF;}
	.st1{fill:#F15A24;}
	.st2{fill:#FDFDFD;stroke:#F15A24;stroke-miterlimit:10;}
	.st3{fill:#060606;stroke:#F15A24;stroke-miterlimit:10;}
	.st4{fill:#FCFCFC;stroke:#F15A24;stroke-miterlimit:10;}
</style>
<g>
	<polygon class="st0" points="24.3,85.5 0.6,43 24.3,0.5 71.7,0.5 95.4,43 71.7,85.5 	"/>
	<path class="st1" d="M71.4,1l23.4,42L71.4,85H24.6L1.2,43L24.6,1H71.4 M72,0H24L0,43l24,43h48l24-43L72,0L72,0z"/>
</g>
<g>
	<path class="st2" d="M22.6,49.7c0,2.4,0,4.7,0,7.1c0,0.7,0.3,1.3,0.9,1.7c1.5,1,3.8,0,3.8-2.3c-0.1-4.5,0-8.9-0.1-13.4
		c0-0.6,0.2-0.9,0.6-1.1c1.2-0.8,1.9-1.9,2.4-3.2c0.3-0.9,0.3-1.8,0.3-2.8c0-2.9,0-5.9,0-8.8c0-0.8-0.2-1-1-1c-0.5,0-1,0-1.5,0
		c-0.9,0-1.1,0.1-1.1,1.1c0,2.5,0,5,0,7.4c0,0.2,0.1,0.5-0.2,0.5c-0.3,0-0.2-0.3-0.2-0.4s0-0.3,0-0.4c0-2.4,0-4.7,0-7.1
		c0-0.8-0.2-1-1-1c-0.5,0-0.9,0-1.4,0c-0.8,0-1,0.2-1,1c0,2.4,0,4.9,0,7.3c0,0.2,0,0.3,0,0.5c0,0.1-0.1,0.2-0.2,0.2
		s-0.2-0.1-0.2-0.2s0-0.3,0-0.4c0-2.5,0-5,0-7.4c0-0.7-0.2-0.9-0.9-0.9c-0.6,0-1.2,0-1.8,0c-0.7,0-0.9,0.2-0.9,0.9
		c0,3.2,0,6.3,0,9.5c0,2.4,1,4.3,3,5.7c0.3,0.2,0.3,0.4,0.3,0.7C22.6,45,22.6,47.4,22.6,49.7z M31.2,43.5c0.1,1.6,0.3,3.4,1.1,5.2
		c0.6,1.3,1.3,2.5,2.2,3.6c1.5,1.9,3.4,3.3,5.5,4.4s4.3,1.7,6.6,1.9c2.9,0.3,5.8,0,8.5-1c2.3-0.8,4.3-2,6.1-3.7
		c0.9-0.9,1.7-1.8,2.4-2.8c1.3-1.8,1.9-3.8,2.3-5.9c0.3-1.7,0.3-3.5-0.3-5.2c-0.3-1-0.6-2-1-3c-0.9-1.7-2-3.2-3.4-4.6
		c-1.2-1.1-2.5-2-4-2.8c-2.2-1.1-4.6-1.8-7.1-2c-3-0.2-6,0.2-8.8,1.4c-2.2,0.9-4.1,2.1-5.7,3.8c-1.6,1.6-2.8,3.5-3.6,5.6
		C31.4,40,31.2,41.6,31.2,43.5z M75.9,41.8c0-4.9,0-9.9,0-14.8c0-0.5-0.2-0.7-0.5-0.9c-0.4-0.2-0.7,0-0.9,0.2c-1.2,1-2.2,2-3.1,3.3
		c-0.9,1.2-1.6,2.5-2.2,3.9c-0.6,1.5-0.8,3.2-1,4.8c-0.1,0.8,0.1,1.6,0.2,2.4c0.3,1.7,1,3.2,2.3,4.4c0.4,0.3,0.5,0.7,0.5,1.2
		c0,3.4,0,6.9,0,10.3c0,0.6,0.1,1,0.5,1.5c0.7,0.7,1.7,1,2.7,0.7c1-0.4,1.6-1.2,1.6-2.3C75.9,51.5,75.9,46.7,75.9,41.8z"/>
	<path class="st3" d="M22.6,49.7c0-2.4,0-4.7,0-7.1c0-0.3-0.1-0.5-0.3-0.7c-2-1.4-3-3.2-3-5.7c0-3.1,0-6.3,0-9.5
		c0-0.7,0.2-0.9,0.9-0.9c0.6,0,1.2,0,1.8,0c0.7,0,0.9,0.2,0.9,0.9c0,2.5,0,5,0,7.4c0,0.1,0,0.3,0,0.4s0,0.2,0.2,0.2
		c0.1,0,0.2-0.1,0.2-0.2c0-0.2,0-0.3,0-0.5c0-2.4,0-4.9,0-7.3c0-0.8,0.2-1,1-1c0.5,0,0.9,0,1.4,0c0.8,0,1,0.2,1,1c0,2.4,0,4.7,0,7.1
		c0,0.1,0,0.3,0,0.4c0,0.2-0.1,0.5,0.2,0.4c0.3,0,0.2-0.3,0.2-0.5c0-2.5,0-5,0-7.4c0-0.9,0.1-1.1,1.1-1.1c0.5,0,1,0,1.5,0
		c0.8,0,1,0.2,1,1c0,2.9,0,5.9,0,8.8c0,0.9,0,1.9-0.3,2.8c-0.5,1.3-1.2,2.4-2.4,3.2c-0.4,0.3-0.6,0.6-0.6,1.1
		c0,4.5-0.1,8.9,0.1,13.4c0.1,2.3-2.3,3.3-3.8,2.3c-0.6-0.4-0.9-1-0.9-1.7C22.6,54.4,22.6,52.1,22.6,49.7z M24,49.3
		c0,2.3,0,4.6,0,6.9c0,0.2,0,0.5,0,0.7c0.2,0.7,0.9,0.9,1.4,0.4c0.3-0.3,0.4-0.6,0.4-1c0-4.6,0-9.2,0-13.9c0-0.8,0.3-1.3,0.9-1.6
		c1.6-1,2.3-2.6,2.4-4.3c0.2-3,0-5.9,0.1-8.9c0-0.3-0.1-0.4-0.4-0.4c-0.4,0-0.4,0.3-0.4,0.5c0,2.2,0,4.5,0,6.7c0,0.5,0,1-0.4,1.3
		c-0.6,0.5-1.3,0.7-2,0.4c-0.8-0.3-0.9-0.9-0.9-1.7c0-2.2,0-4.4,0-6.6c0-0.2,0.1-0.6-0.2-0.6c-0.3,0-0.2,0.3-0.2,0.5
		c0,2.2,0,4.4,0,6.6c0,0.9-0.7,1.8-1.7,1.8s-1.6-0.6-1.6-1.7c0-2.2,0-4.5,0-6.7c0-0.3,0.1-0.6-0.4-0.6s-0.4,0.3-0.4,0.6
		c0,2.7,0.1,5.5,0,8.2c-0.1,2.3,0.9,3.9,2.8,5.1c0.5,0.3,0.6,0.6,0.6,1.1C24,44.6,24,47,24,49.3z"/>
	<path class="st3" d="M31.2,43.5c0-1.9,0.2-3.5,0.7-4.9c0.8-2.1,2-4,3.6-5.6c1.7-1.6,3.6-2.9,5.7-3.8C44,28,47,27.6,50,27.8
		c2.5,0.2,4.9,0.8,7.1,2c1.5,0.7,2.8,1.6,4,2.8c1.4,1.3,2.5,2.8,3.4,4.6c0.5,1,0.7,2,1,3c0.5,1.7,0.6,3.5,0.3,5.2
		c-0.4,2.1-1,4.1-2.3,5.9c-0.7,1-1.5,2-2.4,2.8c-1.8,1.7-3.8,2.9-6.1,3.7c-2.7,1-5.6,1.3-8.5,1c-2.3-0.2-4.6-0.9-6.6-1.9
		c-2.1-1.1-4-2.5-5.5-4.4c-0.9-1.1-1.6-2.3-2.2-3.6C31.5,46.9,31.3,45.1,31.2,43.5z M49.1,29c-3.1,0-5.6,0.5-7.9,1.7
		c-1.7,0.8-3.1,1.8-4.5,3.1c-1.8,1.8-3.1,3.9-3.7,6.3c-0.8,3.4-0.4,6.8,1.5,9.8c0.6,1,1.3,1.9,2.2,2.8c1.6,1.6,3.5,2.7,5.5,3.6
		c3.2,1.2,6.4,1.5,9.8,0.8c3.2-0.6,5.9-2,8.3-4.2c1.7-1.6,3-3.6,3.7-5.8c1.1-3.8,0.7-7.5-1.5-10.8c-1.2-1.8-2.7-3.3-4.5-4.4
		C55.2,29.9,52,29.1,49.1,29z"/>
	<path class="st3" d="M75.9,41.8c0,4.8,0,9.7,0,14.5c0,1.1-0.6,1.9-1.6,2.3c-0.9,0.3-1.9,0.1-2.7-0.7c-0.4-0.4-0.5-0.9-0.5-1.5
		c0-3.4,0-6.9,0-10.3c0-0.5-0.1-0.9-0.5-1.2c-1.4-1.2-2-2.7-2.3-4.4c-0.1-0.8-0.3-1.6-0.2-2.4c0.3-1.6,0.4-3.2,1-4.8
		c0.6-1.4,1.3-2.7,2.2-3.9c0.9-1.2,2-2.3,3.1-3.3c0.3-0.2,0.6-0.4,0.9-0.2c0.4,0.2,0.5,0.5,0.5,0.9C75.8,31.9,75.9,36.9,75.9,41.8z
		 M74.4,28.2c-0.2,0.2-0.3,0.3-0.4,0.5c-0.1,0.1-0.2,0.3-0.3,0.4c-1.8,1.8-2.8,4-3.5,6.3c-0.4,1.4-0.5,2.9-0.4,4.4
		c0.1,1.6,0.7,3.1,2,4.1c0.8,0.7,1.1,1.4,1.1,2.4c-0.1,3.3,0,6.6,0,9.9c0,0.8,0.2,1.1,0.8,1.1s0.9-0.4,0.9-1.1c0-0.2,0-0.5,0-0.7
		c0-4.3,0-8.5,0-12.8C74.4,38,74.4,33.2,74.4,28.2z"/>
	<path class="st4" d="M24,49.3c0-2.3,0-4.7,0-7c0-0.5-0.1-0.8-0.6-1.1c-1.9-1.2-2.9-2.8-2.8-5.1c0.1-2.7,0-5.5,0-8.2
		c0-0.3-0.1-0.6,0.4-0.6s0.4,0.3,0.4,0.6c0,2.2,0,4.5,0,6.7c0,1.1,0.6,1.7,1.6,1.7s1.7-0.9,1.7-1.8c0-2.2,0-4.4,0-6.6
		c0-0.2-0.1-0.5,0.2-0.5c0.3,0,0.2,0.4,0.2,0.6c0,2.2,0,4.4,0,6.6c0,0.7,0.1,1.4,0.9,1.7c0.8,0.3,1.5,0.1,2-0.4
		c0.4-0.3,0.4-0.8,0.4-1.3c0-2.2,0-4.5,0-6.7c0-0.3-0.1-0.6,0.4-0.5c0.3,0,0.4,0.1,0.4,0.4c0,3,0.1,5.9-0.1,8.9
		C29,38.4,28.3,40,26.7,41c-0.6,0.3-0.9,0.8-0.9,1.6c0,4.6,0,9.2,0,13.9c0,0.4-0.1,0.7-0.4,1c-0.5,0.4-1.2,0.2-1.4-0.4
		c-0.1-0.2,0-0.4,0-0.7C24,53.9,24,51.6,24,49.3z"/>
	<path class="st4" d="M49.1,29c2.9,0,6.1,0.9,9,2.7c1.8,1.2,3.3,2.6,4.5,4.4c2.2,3.4,2.6,7,1.5,10.8c-0.6,2.3-2,4.2-3.7,5.8
		c-2.4,2.2-5.1,3.6-8.3,4.2c-3.3,0.6-6.6,0.4-9.8-0.8c-2.1-0.8-4-2-5.5-3.6c-0.8-0.8-1.6-1.8-2.2-2.8c-1.9-3.1-2.4-6.4-1.5-9.8
		c0.6-2.4,1.8-4.5,3.7-6.3c1.3-1.3,2.8-2.3,4.5-3.1C43.5,29.6,46,29,49.1,29z M48.7,33.9c-2.4,0-4.5,0.6-6.5,2
		c-1.8,1.2-3,2.8-3.6,4.8c-0.6,1.9-0.6,3.9,0.3,5.8c0.6,1.2,1.3,2.3,2.3,3.2c2.1,1.9,4.5,2.8,7.3,2.9c2.4,0.1,4.5-0.5,6.5-1.8
		c1.7-1.1,3-2.6,3.7-4.5c0.8-2.4,0.8-4.8-0.5-7.1c-0.6-1-1.3-1.9-2.2-2.7C53.8,34.8,51.4,34,48.7,33.9z"/>
	<path class="st4" d="M74.4,28.2c0,5,0,9.8,0,14.6c0,4.3,0,8.5,0,12.8c0,0.2,0,0.5,0,0.7c0,0.7-0.3,1.1-0.9,1.1
		c-0.6,0-0.8-0.3-0.8-1.1c0-3.3,0-6.6,0-9.9c0-1-0.2-1.8-1.1-2.4c-1.3-1-1.8-2.5-2-4.1c-0.1-1.5,0-3,0.4-4.4
		c0.7-2.4,1.8-4.6,3.5-6.3c0.1-0.1,0.2-0.3,0.3-0.4C74.1,28.6,74.2,28.5,74.4,28.2z"/>
	<path class="st3" d="M48.7,33.9c2.7,0,5.1,0.8,7.2,2.6c0.9,0.8,1.6,1.7,2.2,2.7c1.3,2.3,1.3,4.7,0.5,7.1c-0.7,1.9-2,3.4-3.7,4.5
		c-2,1.3-4.2,1.9-6.5,1.8c-2.8-0.1-5.2-1-7.3-2.9c-1-0.9-1.7-2-2.3-3.2c-0.9-1.9-0.9-3.8-0.3-5.8s1.9-3.6,3.6-4.8
		C44.1,34.6,46.3,34,48.7,33.9z M48.8,35.2c-2.6,0-4.8,0.8-6.7,2.4c-1.4,1.2-2.2,2.8-2.5,4.5c-0.4,2,0.3,3.8,1.4,5.4
		c1.1,1.5,2.5,2.5,4.2,3.1c2.6,0.9,5.1,0.8,7.6-0.3c2.2-1,3.8-2.6,4.5-4.8c0.9-2.6,0.4-5-1.4-7.1C54,36.2,51.6,35.3,48.8,35.2z"/>
	<path class="st4" d="M48.8,35.2c2.7,0.1,5.2,1.1,7.1,3.3c1.8,2.1,2.3,4.5,1.4,7.1c-0.7,2.2-2.3,3.8-4.5,4.8c-2.5,1.1-5,1.3-7.6,0.3
		c-1.7-0.6-3.2-1.6-4.2-3.1c-1.2-1.6-1.8-3.4-1.4-5.4c0.3-1.8,1.1-3.3,2.5-4.5C44.1,35.9,46.2,35.2,48.8,35.2z"/>
</g>
</svg>
