<?xml version="1.0" encoding="utf-8"?>
<!-- Generator: Adobe Illustrator 25.3.1, SVG Export Plug-In . SVG Version: 6.00 Build 0)  -->
<svg version="1.1" id="Layer_1" xmlns="http://www.w3.org/2000/svg" xmlns:xlink="http://www.w3.org/1999/xlink" x="0px" y="0px"
	 viewBox="0 0 600 600" style="enable-background:new 0 0 600 600;" xml:space="preserve">
<style type="text/css">
	.st0{fill:#FFEA2B;stroke:#E94E1B;stroke-miterlimit:10;}
	.st1{fill:#FFDE00;stroke:#E94E1B;stroke-miterlimit:10;}
	.st2{fill:#F9B233;stroke:#E94E1B;stroke-miterlimit:10;}
	.st3{fill:#FCEA10;stroke:#E94E1B;stroke-miterlimit:10;}
	.st4{fill:#E94E1B;}
	.st5{font-family:'Gabriola';}
	.st6{font-size:75.9401px;}
	.st7{fill:none;}
	.st8{fill:#121211;}
	.st9{fill:none;stroke:#E94E1B;stroke-width:0.25;stroke-miterlimit:10;}
	.st10{fill:#F39200;}
	.st11{fill:#FFDE00;}
</style>
<polygon class="st0" points="354.39,137.39 333.42,101.98 290.45,102.57 268.43,138.57 289.4,173.98 332.38,173.39 "/>
<polygon class="st0" points="354.51,213.66 333.54,178.25 290.57,178.83 268.55,214.83 289.52,250.24 332.5,249.66 "/>
<polygon class="st0" points="421.84,249.66 400.87,214.24 357.89,214.83 335.88,250.83 356.85,286.24 399.82,285.65 "/>
<polygon class="st0" points="421.84,173.39 400.87,137.98 357.89,138.57 335.88,174.56 356.85,209.98 399.82,209.39 "/>
<g>
	<polygon class="st1" points="220.84,141.66 199.88,106.25 156.9,106.84 134.88,142.83 155.85,178.25 198.83,177.66 	"/>
	<polygon class="st0" points="288.17,177.66 267.2,142.25 224.22,142.83 202.21,178.83 223.18,214.24 266.15,213.66 	"/>
	<polygon class="st2" points="288.17,101.39 267.2,65.98 224.22,66.57 202.21,102.57 223.18,137.98 266.15,137.39 	"/>
	<polygon class="st1" points="354.39,137.39 333.42,101.98 290.45,102.57 268.43,138.57 289.4,173.98 332.38,173.39 	"/>
	<polygon class="st2" points="354.51,213.66 333.54,178.25 290.57,178.83 268.55,214.83 289.52,250.24 332.5,249.66 	"/>
	<polygon class="st0" points="421.84,249.66 400.87,214.24 357.89,214.83 335.88,250.83 356.85,286.24 399.82,285.65 	"/>
	<polygon class="st0" points="421.84,173.39 400.87,137.98 357.89,138.57 335.88,174.56 356.85,209.98 399.82,209.39 	"/>
	<polygon class="st3" points="488.06,209.39 467.09,173.98 424.12,174.56 402.1,210.56 423.07,245.97 466.05,245.39 	"/>
	<polygon class="st0" points="286.83,253.92 265.86,218.51 222.88,219.1 200.87,255.1 221.84,290.51 264.82,289.92 	"/>
	<polygon class="st2" points="286.95,330.19 265.98,294.78 223,295.37 200.99,331.37 221.96,366.78 264.94,366.19 	"/>
	<polygon class="st1" points="354.27,366.19 333.31,330.78 290.33,331.37 268.32,367.37 289.28,402.78 332.26,402.19 	"/>
	<polygon class="st0" points="354.27,289.92 333.31,254.51 290.33,255.1 268.32,291.1 289.28,326.51 332.26,325.92 	"/>
</g>
<text transform="matrix(1.8315 0 0 1 132.6582 475.8072)"><tspan x="0" y="0" class="st4 st5 st6">H </tspan><tspan x="55.29" y="0" class="st7 st5 st6">o</tspan><tspan x="82.26" y="0" class="st4 st5 st6">NEY</tspan></text>
<g>
	<path class="st7" d="M200.93,433.04c0-26.39,0-52.79-0.01-79.18c0-0.47,0.12-0.58,0.63-0.58c54.21,0.01,108.41,0.01,162.62,0
		c0.51,0,0.63,0.11,0.63,0.58c-0.01,52.79-0.01,105.58,0,158.37c0,0.47-0.12,0.58-0.63,0.58c-54.21-0.01-108.41-0.01-162.62,0
		c-0.51,0-0.63-0.11-0.63-0.58C200.93,485.82,200.93,459.43,200.93,433.04z M260.99,458.89c0-0.25-0.01-0.41,0-0.58
		c0.15-2.01-0.02-4-0.4-5.98c-0.2-1.02-1.1-1.77-2.19-1.83c-1.2-0.07-2.22,0.55-2.55,1.58c-0.16,0.49-0.12,0.99-0.02,1.49
		c0.37,1.95,0.49,3.92,0.13,5.86c-0.26,1.35,0.06,2.5,0.64,3.67c0.61,1.23,1.68,1.68,3.11,1.27c1.05-0.3,2.08-0.62,3.09-1.02
		c1.41-0.55,2.89-0.98,4.35-1.42c0.68-0.21,1.17-0.58,1.55-1.12c1.02-1.44,0.12-3.35-1.72-3.62c-0.54-0.08-1.03,0.08-1.53,0.24
		C263.97,457.91,262.5,458.39,260.99,458.89z M236.41,491.98c-0.02-1.65-1.64-3.03-3.6-2.18c-0.75,0.32-1.4,0.8-2.18,1.07
		c-1.73,0.62-3.44,1.3-5.16,1.95c-1.31,0.49-1.99,1.77-1.46,2.97c0.61,1.36,1.59,1.91,3.15,1.51c0.56-0.14,1.05-0.44,1.58-0.62
		c2.15-0.75,4.27-1.53,6.27-2.59C235.92,493.62,236.41,492.95,236.41,491.98z M234.72,431.84c-0.85-0.04-1.61,0.05-2.26,0.71
		c-0.78,0.79-1.01,1.63-0.62,2.58c0.4,0.98,1.26,1.43,2.38,1.47c0.94,0.03,1.86,0.14,2.79,0.34c1.48,0.32,2.95,0.64,4.4,1.06
		c1.44,0.41,2.64-0.18,3.11-1.48c0.46-1.26-0.19-2.55-1.51-3.03c-1.49-0.54-3.06-0.82-4.59-1.23
		C237.23,431.93,235.97,431.88,234.72,431.84z M216.58,449.6c0.18,2.62,0.76,5.11,1.77,7.51c0.38,0.9,0.84,1.77,1.87,2.16
		c1.03,0.39,1.88,0.03,2.58-0.71c0.75-0.79,0.87-1.68,0.42-2.62c-0.62-1.3-1.07-2.64-1.37-4.03c-0.22-1.02-0.27-2.07-0.44-3.1
		c-0.15-0.93-0.67-1.65-1.7-1.9c-0.94-0.23-1.83-0.06-2.49,0.63C216.66,448.14,216.47,448.86,216.58,449.6z M228.51,435.94
		c0.01-1.99-1.81-3.05-3.63-2.24c-0.69,0.3-1.3,0.71-1.92,1.12c-1.35,0.88-2.45,1.96-3.43,3.17c-0.61,0.76-1.05,1.6-1.48,2.44
		c-0.84,1.68,0.92,3.48,2.38,3.35c1.07-0.1,1.72-0.71,2.14-1.5c1.03-1.93,2.52-3.41,4.62-4.38
		C228.14,437.48,228.45,436.7,228.51,435.94z M249.34,475.39c-0.02,1.19,0.67,2.12,1.7,2.41c0.99,0.29,2.23-0.07,2.72-0.83
		c0.89-1.37,1.8-2.73,2.61-4.14c0.64-1.12,1.27-2.25,1.75-3.44c0.52-1.29-0.09-2.64-1.43-3.09c-1.31-0.45-2.72,0.18-3.21,1.47
		c-0.12,0.32-0.26,0.62-0.42,0.92c-0.98,1.87-2.03,3.71-3.29,5.44C249.46,474.54,249.38,475.01,249.34,475.39z M238.45,487.35
		c0.01,1.19,0.44,1.93,1.38,2.36c0.95,0.43,1.86,0.29,2.67-0.3c0.81-0.6,1.48-1.33,2.21-2.01c1.22-1.14,2.31-2.4,3.5-3.57
		c0.26-0.25,0.45-0.57,0.63-0.87c0.9-1.49-0.15-3.31-1.98-3.44c-0.88-0.06-1.58,0.28-2.15,0.89c-1.64,1.77-3.28,3.54-5.13,5.13
		C238.97,486.07,238.41,486.7,238.45,487.35z M224.1,462.71c0,0.89,0.3,1.59,1.06,2.06c0.74,0.46,1.54,0.86,2.34,1.2
		c2.11,0.91,4.36,1.39,6.68,1.62c0.8,0.08,1.48-0.19,2-0.74c0.65-0.69,0.82-1.5,0.48-2.34c-0.33-0.83-0.87-1.48-1.94-1.63
		c-2.47-0.33-4.83-0.93-6.99-2.17C226.05,459.75,224.18,460.89,224.1,462.71z M243.1,467.68c2.5-0.2,5.21-0.61,7.9-1.1
		c0.93-0.17,1.57-0.59,1.96-1.35c0.44-0.86,0.41-1.71-0.2-2.49c-0.61-0.78-1.48-1.07-2.52-0.88c-2.54,0.47-5.08,0.88-7.67,1.08
		c-0.72,0.05-1.31,0.3-1.78,0.86c-0.71,0.83-0.83,1.72-0.38,2.64C240.87,467.35,241.74,467.76,243.1,467.68z M257.55,445.43
		c0.04-0.4-0.08-0.82-0.33-1.21c-1.63-2.49-3.69-4.65-6.17-6.47c-0.4-0.29-0.84-0.48-1.36-0.52c-1.08-0.07-2.05,0.45-2.48,1.33
		c-0.44,0.92-0.19,2.26,0.73,2.91c2.08,1.49,3.74,3.3,5.17,5.31c0.62,0.87,1.73,1.15,2.77,0.84
		C256.88,447.32,257.52,446.49,257.55,445.43z M211.7,497.83c0.1,1.52,1.27,2.58,2.91,2.33c1.28-0.2,2.55-0.4,3.83-0.59
		c0.52-0.08,0.95-0.27,1.33-0.64c0.86-0.82,1.13-1.91,0.63-2.86c-0.5-0.94-1.51-1.39-2.8-1.2c-1.25,0.18-2.5,0.4-3.76,0.6
		C212.49,495.7,211.7,496.58,211.7,497.83z M271.85,456.2c0,1.81,1.49,3.01,3.02,2.52c1.6-0.51,3.22-1.07,4.59-2.06
		c1.08-0.78,1.33-2.1,0.62-3.13c-0.69-1-1.97-1.31-3.23-0.78c-1.15,0.48-2.31,0.96-3.45,1.47
		C272.4,454.66,271.93,455.44,271.85,456.2z"/>
	<path class="st8" d="M290.23,421.63c2.96,0.05,5.86,0.5,8.71,1.2c0.31,0.08,0.5,0.03,0.76-0.07c0.9-0.36,1.82-0.66,2.71-1.04
		c1.57-0.67,3.21-1.1,4.88-1.48c1.11-0.25,2.19-0.28,3.3-0.16c0.26,0.03,0.36-0.02,0.45-0.22c0.72-1.55,0.69-3.1,0.12-4.68
		c-0.25-0.68-0.66-1.26-1.18-1.76c-0.58-0.56-1.32-0.74-2.14-0.48c-0.69,0.23-1.3,0.59-1.63,1.5c-2.03-1.53-2.32-2.32-0.82-3.45
		c1.69-1.27,4.12-1.31,5.71-0.33c1.15,0.72,1.98,1.7,2.54,2.89c0.64,1.34,0.94,2.74,0.9,4.19c-0.03,1.15-0.27,2.26-0.79,3.31
		c-0.08,0.17-0.11,0.29,0.09,0.4c0.06,0.03,0.09,0.12,0.14,0.17c0.25,0.25,0.47,0.59,0.78,0.7c0.3,0.11,0.63-0.21,0.96-0.31
		c1.41-0.44,2.84-0.82,4.34-0.54c1.27,0.24,2.56,0.52,3.6,1.28c2.26,1.64,2.82,4.08,1.52,6.43c-0.17,0.3-0.32,0.6-0.54,0.88
		c-0.56,0.68-1.41,0.83-2.12,0.38c-0.66-0.43-0.81-1.27-0.35-1.94c0.19-0.28,0.37-0.58,0.53-0.88c0.48-0.94,0.21-1.87-0.72-2.48
		c-1.4-0.92-2.96-0.97-4.57-0.61c-0.38,0.09-0.75,0.22-1.11,0.38c-0.15,0.07-0.19,0.14-0.16,0.29c0.42,1.83,0.2,3.63-0.34,5.41
		c-0.56,1.89-1.36,3.7-2.25,5.47c-0.2,0.4-0.25,0.87-0.13,1.3c0.78,2.93,1.25,5.91,1.14,8.94c-0.06,1.65-0.32,3.27-1.03,4.79
		c-0.82,1.73-2.12,3.02-4.11,3.72c-1.86,0.66-3.73,0.62-5.59,0.19c-0.81-0.19-1.62-0.51-2.27-1.03c-0.68-0.53-1.32-1.11-1.67-1.89
		c-0.1-0.22-0.22-0.26-0.44-0.13c-1.26,0.73-2.68,1.11-4.08,1.52c-3.11,0.9-6.26,0.9-9.44,0.41c-1.26-0.19-2.44-0.64-3.63-1.03
		c-0.29-0.09-0.43-0.27-0.53-0.52c-0.57-1.45-0.92-2.95-1.09-4.49c-0.39-3.5,0.12-6.88,1.56-10.15c0.25-0.57,0.59-1.09,0.83-1.66
		c0.06-0.14,0.09-0.21-0.07-0.3c-1.83-1.05-2.61-2.67-2.92-4.55c-0.28-1.7-0.19-3.37,0.5-4.98c0.59-1.36,1.57-2.4,2.93-3.21
		c1.48-0.88,3.12-1.16,4.81-1.33C288.95,421.64,289.59,421.6,290.23,421.63z M308.16,430.72c-0.59,1.04-1.12,2.03-1.63,3.03
		c-0.91,1.78-1.75,3.59-2.5,5.44c-0.7,1.75-1.34,3.51-1.75,5.33c-0.37,1.66-0.65,3.33-0.26,5.02c0.22,0.95,0.57,1.84,1.6,2.31
		c0.55,0.25,1.1,0.5,1.74,0.55c1.23,0.09,2.43,0.1,3.55-0.49c0.45-0.24,0.9-0.5,1.2-0.89c0.5-0.64,0.87-1.34,1.08-2.12
		c0.41-1.48,0.46-2.98,0.38-4.49c-0.06-1.26-0.22-2.52-0.46-3.76C310.48,437.28,309.51,434,308.16,430.72z M305.13,427.81
		c-0.84-0.35-1.7-0.62-2.55-0.92c-0.68-0.24-1.36-0.45-2.05-0.65c-3.91-1.12-7.91-2.03-12.03-1.68c-1.35,0.11-2.67,0.33-3.81,1.13
		c-0.8,0.56-1.32,1.25-1.57,2.12c-0.36,1.25-0.32,2.51,0.04,3.75c0.19,0.65,0.52,1.23,1.14,1.64c0.69,0.45,1.44,0.72,2.28,0.76
		c1.5,0.06,2.96-0.05,4.42-0.44c1.64-0.43,3.3-0.79,4.85-1.45c1.08-0.46,2.2-0.81,3.27-1.3c1.33-0.61,2.66-1.22,3.98-1.85
		C303.79,428.58,304.44,428.22,305.13,427.81z M284.81,439.17c-0.56,1.32-0.92,2.63-1.12,3.97c-0.02,0.14-0.07,0.29,0.08,0.42
		c0.3,0.25,0.56,0.54,0.83,0.82c0.9,0.89,1.82,1.76,2.72,2.66c1.18,1.17,2.4,2.31,3.6,3.46c0.18,0.17,0.37,0.32,0.51,0.53
		c0.11,0.17,0.29,0.25,0.55,0.23c1.23-0.1,2.36-0.51,3.53-0.81c0.21-0.05,0.42-0.14,0.7-0.23c-0.42-0.29-0.65-0.64-0.96-0.93
		c-0.95-0.87-1.85-1.8-2.77-2.69c-0.9-0.87-1.8-1.74-2.7-2.62c-0.78-0.77-1.58-1.51-2.37-2.26c-0.04-0.04-0.08-0.07-0.11-0.11
		C286.51,440.78,285.7,439.98,284.81,439.17z M289.32,436.76c1.08,1.08,2.09,2.12,3.2,3.11c0.55,0.48,1.05,1.01,1.55,1.54
		c0.82,0.87,1.75,1.64,2.58,2.5c0.59,0.62,1.28,1.15,1.82,1.8c0.14,0.17,0.33,0.3,0.55,0.5c0.19-1.54,0.52-2.97,0.96-4.37
		c-0.44-0.68-1.11-1.15-1.68-1.73c-1.2-1.22-2.47-2.39-3.7-3.58c-0.13-0.12-0.26-0.25-0.37-0.39c-0.19-0.27-0.43-0.43-0.85-0.28
		c-0.61,0.22-1.25,0.38-1.89,0.52C290.79,436.54,290.07,436.63,289.32,436.76z M311.98,432.46c0.25-0.65,0.52-1.28,0.74-1.92
		c0.57-1.65,0.98-3.32,0.44-5.04c-0.37-1.17-1.09-2.11-2.46-2.42c-0.64-0.14-1.26-0.28-1.98-0.16c-1.1,0.19-2.19,0.38-3.24,0.73
		c-0.55,0.18-1.14,0.28-1.62,0.63c0.04,0.02,0.07,0.05,0.11,0.06c1.71,0.49,3.29,1.27,4.92,1.94c0.29,0.12,0.57,0.29,0.7,0.55
		c0.44,0.9,0.85,1.8,1.24,2.72C311.23,430.5,311.59,431.47,311.98,432.46z M301.81,436.78c0.05-0.06,0.08-0.1,0.1-0.14
		c0.43-1.01,0.85-2.03,1.41-2.98c0.31-0.53,0.08-0.82-0.33-1.14c-0.17-0.13-0.28-0.18-0.49-0.08c-0.4,0.19-0.81,0.35-1.21,0.53
		c-0.77,0.34-1.53,0.68-2.32,1.03C299.93,434.94,300.86,435.85,301.81,436.78z"/>
	<path class="st9" d="M260.99,458.89c1.51-0.5,2.98-0.98,4.45-1.46c0.49-0.16,0.99-0.32,1.53-0.24c1.84,0.27,2.74,2.18,1.72,3.62
		c-0.38,0.54-0.86,0.91-1.55,1.12c-1.46,0.44-2.94,0.87-4.35,1.42c-1.01,0.4-2.05,0.72-3.09,1.02c-1.43,0.4-2.5-0.04-3.11-1.27
		c-0.57-1.17-0.89-2.32-0.64-3.67c0.37-1.94,0.25-3.91-0.13-5.86c-0.1-0.5-0.14-1,0.02-1.49c0.33-1.03,1.35-1.65,2.55-1.58
		c1.09,0.06,1.99,0.81,2.19,1.83c0.38,1.98,0.56,3.97,0.4,5.98C260.98,458.48,260.99,458.64,260.99,458.89z"/>
	<path class="st9" d="M236.41,491.98c0,0.97-0.49,1.64-1.4,2.12c-2,1.06-4.12,1.84-6.27,2.59c-0.53,0.18-1.02,0.48-1.58,0.62
		c-1.56,0.4-2.54-0.15-3.15-1.51c-0.54-1.2,0.15-2.47,1.46-2.97c1.72-0.65,3.43-1.33,5.16-1.95c0.78-0.28,1.43-0.75,2.18-1.07
		C234.77,488.95,236.39,490.32,236.41,491.98z"/>
	<path class="st9" d="M234.72,431.84c1.25,0.04,2.52,0.09,3.71,0.41c1.53,0.41,3.1,0.7,4.59,1.23c1.31,0.47,1.96,1.77,1.51,3.03
		c-0.47,1.3-1.67,1.89-3.11,1.48c-1.45-0.42-2.92-0.74-4.4-1.06c-0.93-0.2-1.85-0.3-2.79-0.34c-1.13-0.04-1.99-0.48-2.38-1.47
		c-0.39-0.96-0.16-1.8,0.62-2.58C233.1,431.89,233.86,431.8,234.72,431.84z"/>
	<path class="st9" d="M216.58,449.6c-0.11-0.73,0.07-1.46,0.63-2.04c0.66-0.69,1.55-0.86,2.49-0.63c1.03,0.25,1.55,0.97,1.7,1.9
		c0.17,1.03,0.21,2.07,0.44,3.1c0.3,1.39,0.75,2.73,1.37,4.03c0.45,0.94,0.33,1.83-0.42,2.62c-0.7,0.74-1.55,1.1-2.58,0.71
		c-1.03-0.39-1.49-1.26-1.87-2.16C217.34,454.7,216.76,452.21,216.58,449.6z"/>
	<path class="st9" d="M228.51,435.94c-0.06,0.76-0.37,1.54-1.31,1.97c-2.1,0.96-3.59,2.45-4.62,4.38c-0.42,0.79-1.07,1.4-2.14,1.5
		c-1.46,0.13-3.21-1.68-2.38-3.35c0.42-0.85,0.86-1.69,1.48-2.44c0.98-1.21,2.08-2.29,3.43-3.17c0.62-0.41,1.23-0.81,1.92-1.12
		C226.7,432.89,228.52,433.95,228.51,435.94z"/>
	<path class="st9" d="M249.34,475.39c0.04-0.38,0.12-0.85,0.42-1.26c1.27-1.73,2.31-3.57,3.29-5.44c0.16-0.3,0.3-0.6,0.42-0.92
		c0.49-1.29,1.9-1.92,3.21-1.47c1.34,0.46,1.94,1.8,1.43,3.09c-0.48,1.19-1.11,2.32-1.75,3.44c-0.81,1.41-1.72,2.77-2.61,4.14
		c-0.49,0.76-1.73,1.11-2.72,0.83C250.01,477.51,249.32,476.58,249.34,475.39z"/>
	<path class="st9" d="M238.45,487.35c-0.04-0.65,0.48-1.28,1.04-1.81c1.69-1.59,3.18-3.36,4.67-5.13c0.51-0.61,1.15-0.95,1.95-0.89
		c1.67,0.13,2.62,1.95,1.8,3.44c-0.17,0.3-0.34,0.62-0.58,0.87c-1.08,1.17-2.07,2.42-3.19,3.57c-0.66,0.68-1.27,1.42-2.01,2.01
		c-0.74,0.6-1.57,0.74-2.43,0.3C238.85,489.28,238.46,488.54,238.45,487.35z"/>
	<path class="st9" d="M224.1,462.97c0.08-1.72,1.96-2.8,3.63-1.89c2.17,1.17,4.52,1.74,6.99,2.05c1.07,0.13,1.61,0.76,1.94,1.54
		c0.34,0.8,0.17,1.56-0.48,2.21c-0.52,0.52-1.21,0.78-2,0.7c-2.31-0.22-4.57-0.68-6.68-1.54c-0.8-0.33-1.59-0.7-2.34-1.14
		C224.39,464.47,224.09,463.82,224.1,462.97z"/>
	<path class="st9" d="M243.1,467.68c-1.36,0.08-2.23-0.33-2.68-1.25c-0.45-0.91-0.32-1.8,0.38-2.64c0.47-0.56,1.06-0.8,1.78-0.86
		c2.58-0.2,5.13-0.6,7.67-1.08c1.04-0.19,1.9,0.1,2.52,0.88c0.61,0.77,0.63,1.63,0.2,2.49c-0.39,0.77-1.03,1.19-1.96,1.35
		C248.3,467.06,245.6,467.47,243.1,467.68z"/>
	<path class="st9" d="M257.07,444.68c-0.02,0.96-0.61,1.72-1.51,1.99c-0.94,0.29-1.95,0.03-2.52-0.76c-1.31-1.83-2.81-3.47-4.7-4.83
		c-0.83-0.59-1.06-1.81-0.66-2.64c0.39-0.8,1.27-1.28,2.25-1.21c0.47,0.03,0.88,0.21,1.24,0.47c2.25,1.65,4.12,3.61,5.6,5.88
		C256.99,443.93,257.1,444.31,257.07,444.68z"/>
	<path class="st7" d="M211.7,496.91c0-0.87,0.71-1.48,1.93-1.64c1.13-0.14,2.25-0.29,3.38-0.42c1.16-0.13,2.08,0.18,2.53,0.83
		c0.45,0.66,0.21,1.41-0.57,1.98c-0.35,0.25-0.73,0.39-1.2,0.44c-1.15,0.13-2.3,0.28-3.45,0.41
		C212.85,498.7,211.79,497.97,211.7,496.91z"/>
	<path class="st9" d="M271.85,455.73c0.07-0.62,0.55-1.25,1.55-1.62c1.14-0.42,2.3-0.8,3.45-1.2c1.26-0.43,2.54-0.18,3.23,0.64
		c0.71,0.84,0.46,1.92-0.62,2.55c-1.36,0.81-2.98,1.26-4.59,1.68C273.34,458.18,271.85,457.2,271.85,455.73z"/>
	<path class="st10" d="M309.11,428.96c1.51,3.16,2.66,6.32,3.49,9.56c0.55,2.13,0.97,4.28,1.07,6.46c0.08,1.66,0,3.31-0.52,4.93
		c-0.29,0.89-0.78,1.7-1.44,2.44c-0.4,0.45-0.99,0.74-1.6,1.02c-1.49,0.68-3.1,0.67-4.73,0.56c-0.84-0.06-1.58-0.35-2.32-0.63
		c-1.38-0.54-1.85-1.57-2.14-2.66c-0.51-1.95-0.15-3.87,0.35-5.78c0.55-2.1,1.4-4.13,2.34-6.14c0.99-2.13,2.12-4.21,3.33-6.26
		C307.61,431.29,308.32,430.15,309.11,428.96z"/>
	<path class="st10" d="M305.55,427.76c-0.7,0.43-1.37,0.8-2.06,1.13c-1.34,0.65-2.7,1.28-4.05,1.91c-1.09,0.5-2.23,0.87-3.33,1.35
		c-1.59,0.69-3.28,1.05-4.95,1.5c-1.48,0.4-2.98,0.52-4.5,0.45c-0.86-0.04-1.63-0.31-2.33-0.78c-0.63-0.42-0.97-1.02-1.16-1.69
		c-0.37-1.28-0.41-2.59-0.04-3.87c0.25-0.9,0.79-1.61,1.6-2.19c1.16-0.83,2.5-1.05,3.88-1.17c3.17-0.27,6.27,0.2,9.31,0.95
		c1.55,0.38,3.13,0.74,4.62,1.31C303.53,427.03,304.56,427.34,305.55,427.76z"/>
	<path class="st11" d="M284.92,439.1c0.88,0.82,1.66,1.63,2.43,2.46c0.04,0.04,0.07,0.07,0.11,0.11c0.77,0.76,1.56,1.52,2.32,2.3
		c0.92,0.94,1.85,1.87,2.78,2.81c0.85,0.86,1.68,1.75,2.56,2.59c0.31,0.29,0.53,0.65,0.94,0.94c-0.28,0.09-0.48,0.18-0.69,0.23
		c-1.14,0.3-2.25,0.72-3.45,0.82c-0.26,0.02-0.42-0.06-0.54-0.23c-0.13-0.21-0.32-0.36-0.49-0.54c-1.17-1.17-2.36-2.33-3.51-3.51
		c-0.85-0.88-1.71-1.76-2.58-2.62c-0.3-0.3-0.57-0.63-0.89-0.91c-0.15-0.13-0.1-0.28-0.08-0.42
		C284.02,441.76,284.38,440.44,284.92,439.1z"/>
	<path class="st11" d="M289.29,436.93c0.72-0.18,1.41-0.34,2.09-0.55c0.61-0.19,1.22-0.41,1.8-0.69c0.4-0.19,0.64-0.03,0.84,0.26
		c0.11,0.16,0.25,0.28,0.38,0.41c1.28,1.24,2.6,2.45,3.84,3.73c0.53,0.54,1.14,0.99,1.6,1.6c0.09,0.12,0.15,0.21,0.11,0.36
		c-0.32,1.53-0.53,3.07-0.61,4.73c-0.22-0.2-0.42-0.34-0.56-0.52c-0.57-0.69-1.28-1.24-1.89-1.88c-0.76-0.79-1.59-1.51-2.36-2.29
		c-0.92-0.93-1.86-1.84-2.81-2.75C290.91,438.57,290.12,437.76,289.29,436.93z"/>
	<path class="st11" d="M312.12,433.55c-0.41-1.1-0.79-2.17-1.22-3.23c-0.41-1.02-0.85-2.03-1.32-3.02
		c-0.13-0.29-0.43-0.48-0.75-0.62c-1.74-0.75-3.43-1.62-5.27-2.17c-0.04-0.01-0.07-0.04-0.12-0.07c0.52-0.39,1.15-0.5,1.74-0.69
		c1.13-0.37,2.3-0.58,3.48-0.79c0.77-0.14,1.44,0.03,2.12,0.19c1.47,0.35,2.24,1.4,2.63,2.7c0.57,1.91,0.12,3.76-0.5,5.59
		C312.69,432.14,312.4,432.83,312.12,433.55z"/>
	<path class="st11" d="M302.21,437.73c-1.58-1.33-3.13-2.64-4.74-3.99c1.31-0.5,2.58-0.99,3.86-1.47c0.67-0.26,1.36-0.49,2.02-0.76
		c0.35-0.15,0.53-0.07,0.82,0.11c0.69,0.46,1.07,0.88,0.56,1.64c-0.93,1.37-1.63,2.83-2.35,4.27
		C302.34,437.59,302.28,437.64,302.21,437.73z"/>
</g>
</svg>
