<?xml version="1.0" encoding="utf-8"?>
<!-- Generator: Adobe Illustrator 25.3.1, SVG Export Plug-In . SVG Version: 6.00 Build 0)  -->
<svg version="1.1" id="Layer_1" xmlns="http://www.w3.org/2000/svg" xmlns:xlink="http://www.w3.org/1999/xlink" x="0px" y="0px"
	 viewBox="0 0 100 86" style="enable-background:new 0 0 100 86;" xml:space="preserve">
<style type="text/css">
	.st0{fill:#FFFFFF;}
	.st1{fill:#F15A24;}
</style>
<g>
	<polygon class="st0" points="25.3,85.5 0.6,43 25.3,0.5 74.7,0.5 99.4,43 74.7,85.5 	"/>
	<path class="st1" d="M74.4,1l24.4,42L74.4,85H25.6L1.2,43L25.6,1H74.4 M75,0H25L0,43l25,43h50l25-43L75,0L75,0z"/>
</g>
<g>
	<g>
		<path class="st1" d="M52.4,29.3c4.9,0,9,3.2,9,7s-4.1,7-9,7s-9-3.2-9-7S47.5,29.3,52.4,29.3 M52.4,19.3c-10.5,0-19,7.6-19,17
			s8.5,17,19,17s19-7.6,19-17S62.9,19.3,52.4,19.3L52.4,19.3z"/>
	</g>
	<g>
		<path class="st1" d="M52,53.3h0.7 M35.4,43.3l17,32l17-32H35.4z"/>
	</g>
</g>
</svg>
