<?xml version="1.0" encoding="utf-8"?>
<!-- Generator: Adobe Illustrator 21.0.0, SVG Export Plug-In . SVG Version: 6.00 Build 0)  -->
<svg version="1.1" id="Layer_1" xmlns="http://www.w3.org/2000/svg" xmlns:xlink="http://www.w3.org/1999/xlink" x="0px" y="0px"
	 viewBox="0 0 365.3 346" style="enable-background:new 0 0 365.3 346;" xml:space="preserve">
<style type="text/css">
	.st0{fill:#FBB03B;stroke:#000000;stroke-miterlimit:10;}
	.st1{fill:#F7931E;stroke:#000000;stroke-miterlimit:10;}
	.st2{fill:#FFFF00;stroke:#F15A24;stroke-miterlimit:10;}
	.st3{font-family:'OCRAExtended';}
	.st4{font-size:97.2111px;}
</style>
<polygon class="st0" points="268.2,16.7 91.2,16.7 2.7,174.7 91.2,332.7 268.2,332.7 356.7,174.7 "/>
<polygon class="st1" points="143.8,16.7 91.8,16.7 65.8,63.7 91.8,110.7 143.8,110.7 169.8,63.7 "/>
<polygon class="st1" points="221.7,63.7 169.7,63.7 143.7,110.7 169.7,157.7 221.7,157.7 247.7,110.7 "/>
<polygon class="st1" points="227,153 175,153 149,200 175,247 227,247 253,200 "/>
<polygon class="st1" points="305,200 253,200 227,247 253,294 305,294 331,247 "/>
<text transform="matrix(0.9265 0 0 1 41.3333 208.6673)" class="st2 st3 st4">HONEY</text>
<polygon class="st1" points="227,247 175,247 149,294 175,341 227,341 253,294 "/>
</svg>
